<?xml version="1.0" encoding="utf-8"?>
<!-- Generator: Adobe Illustrator 16.0.0, SVG Export Plug-In . SVG Version: 6.00 Build 0)  -->
<!DOCTYPE svg PUBLIC "-//W3C//DTD SVG 1.1//EN" "http://www.w3.org/Graphics/SVG/1.1/DTD/svg11.dtd">
<svg version="1.1" id="Layer_1" xmlns="http://www.w3.org/2000/svg" xmlns:xlink="http://www.w3.org/1999/xlink" x="0px" y="0px"
	 width="169.131px" height="39.735px" viewBox="0 0 169.131 39.735" enable-background="new 0 0 169.131 39.735"
	 xml:space="preserve">
<path fill-rule="evenodd" clip-rule="evenodd" d="M23.742,34.221c1.376,1.791,2.759,3.59,4.238,5.514c-1.727,0-3.33,0-5.04,0
	c-0.754-0.945-1.572-1.971-2.413-3.024c-3.691,1.943-7.492,2.223-11.381,0.951c-3.174-1.037-5.529-3.143-7.214-5.979
	c-3.525-5.935-2.107-13.564,3.285-17.91c5.258-4.238,12.764-3.886,17.752,0.634C28.068,19.026,29.209,28.186,23.742,34.221z
	 M20.954,30.605c3.093-3.73,2.692-9.445-0.815-12.934c-3.374-3.355-8.751-3.585-12.405-0.53c-3.606,3.016-4.446,9.081-1.795,12.965
	c2.658,3.893,7.991,5.312,11.892,3.106c-0.737-0.951-1.487-1.88-2.193-2.84c-0.716-0.975-1.592-1.841-2.191-3.013
	c1.711,0,3.303,0,4.948,0C19.225,28.414,20.062,29.475,20.954,30.605z"/>
<path fill-rule="evenodd" clip-rule="evenodd" d="M92.52,1.188c0.875,1.099,1.259,2.106,1.728,3.058
	c2.5,5.083,6.683,7.327,12.23,7.537c6.153,0.233,11.276-2.124,15.858-5.955c3.045-2.546,6.338-4.559,10.325-5.227
	c4.525-0.758,8.729-0.254,12.322,2.947c2.925,2.605,6.547,3.908,10.142,5.238c0.555,0.205,1.115,0.133,1.592-0.236
	c0.688-0.533,1.356-1.093,2.096-1.694c-2.759-1.479-4.18-3.631-3.906-6.857c1.429-0.021,2.77,0.36,3.786,1.213
	c2.822,2.37,5.604,4.801,8.242,7.372c1.457,1.419,1.935,3.419,2.196,5.52c-1.535-0.065-2.594-0.671-3.331-1.976
	c-1.916-3.387-1.937-3.367-5.595-2.034c-1.048,0.382-2.105,0.743-3.176,1.056c-1.778,0.521-3.492,0.384-5.254-0.29
	c-2.813-1.076-5.432-2.449-7.917-4.154c-4.309-2.956-11.724-3.559-16.705,0.515c-2.905,2.376-5.836,4.719-9.278,6.326
	c-4.444,2.074-9.065,3.097-13.947,2.255c-4.216-0.727-7.033-3.379-9.002-7.041C93.701,6.485,92.91,4.065,92.52,1.188z"/>
<path fill-rule="evenodd" clip-rule="evenodd" d="M62.854,21.259c0-1.076,0-1.829,0-2.669c1.401,0,2.735,0,4.161,0
	c0,6.308,0,12.603,0,19.008c-1.327,0-2.69,0-4.187,0c0-0.744,0-1.475,0-2.419c-0.327,0.271-0.479,0.376-0.607,0.506
	c-4.856,4.896-12.809,2.453-14.656-4.44c-1.04-3.88-0.508-7.641,2.469-10.68c3.314-3.383,8.357-3.459,11.84-0.241
	C62.127,20.559,62.374,20.801,62.854,21.259z M63.05,28.064c-0.004-3.636-2.426-6.221-5.837-6.23
	c-3.426-0.01-5.956,2.684-5.926,6.309c0.029,3.514,2.587,6.312,5.833,6.379C60.51,34.591,63.054,31.821,63.05,28.064z"/>
<path fill-rule="evenodd" clip-rule="evenodd" d="M90.58,37.636c0-0.823,0-1.525,0-2.215c-0.436-0.086-0.569,0.216-0.751,0.395
	c-4.758,4.675-12.539,2.335-14.458-4.412c-1.165-4.093-0.542-8.005,2.729-11.133c3.005-2.874,7.699-3.06,10.929-0.444
	c0.463,0.375,0.912,0.766,1.521,1.281c0.043-0.912,0.079-1.678,0.119-2.525c1.32,0,2.616,0,4.001,0c0,6.334,0,12.658,0,19.054
	C93.347,37.636,92.052,37.636,90.58,37.636z M84.984,21.833c-3.437-0.01-5.861,2.538-5.88,6.178
	c-0.019,3.695,2.415,6.44,5.769,6.506c3.327,0.065,5.989-2.805,5.983-6.451C90.851,24.479,88.367,21.843,84.984,21.833z"/>
<path fill-rule="evenodd" clip-rule="evenodd" d="M114.123,38.187c-5.602-0.016-9.849-4.403-9.826-10.151
	c0.022-5.603,4.47-10.056,10.021-10.035c5.662,0.021,10.205,4.571,10.137,10.228C124.386,34.013,119.646,38.471,114.123,38.187z
	 M120.188,28.149c0.008-3.617-2.406-6.226-5.812-6.28c-3.302-0.053-5.922,2.687-5.94,6.209c-0.019,3.652,2.385,6.255,5.783,6.263
	C117.766,34.348,120.182,31.842,120.188,28.149z"/>
<path fill-rule="evenodd" clip-rule="evenodd" d="M135.693,38.187c-5.587-0.009-9.983-4.434-9.984-10.047
	c0-5.615,4.525-10.164,10.089-10.139c5.694,0.025,10.103,4.509,10.078,10.252C145.853,33.938,141.487,38.197,135.693,38.187z
	 M129.92,28.128c-0.001,3.678,2.373,6.209,5.825,6.212c3.47,0.003,6.032-2.669,5.988-6.245c-0.044-3.555-2.593-6.229-5.938-6.227
	C132.471,21.871,129.92,24.588,129.92,28.128z"/>
<path fill-rule="evenodd" clip-rule="evenodd" d="M28.952,18.555c1.526,0,2.834,0,4.119,0c0.313,0.446,0.185,0.899,0.187,1.323
	c0.017,3.197,0.022,6.393,0.019,9.589c-0.001,0.807,0.113,1.6,0.383,2.349c0.701,1.943,2.339,2.812,4.613,2.501
	c1.722-0.235,3.119-1.842,3.165-3.82c0.081-3.474,0.08-6.949,0.111-10.424c0.005-0.472,0.001-0.944,0.001-1.493
	c1.428,0,2.725,0,4.04,0c0.034,0.042,0.125,0.103,0.125,0.163c-0.04,4.583,0.441,9.191-0.441,13.737
	c-0.634,3.266-3.351,5.509-6.669,5.676c-1.155,0.059-2.32,0.129-3.464-0.104c-3.377-0.689-5.312-2.881-5.831-6.164
	C28.617,27.497,29.082,23.055,28.952,18.555z"/>
<path fill-rule="evenodd" clip-rule="evenodd" d="M73.064,37.658c-1.33,0-2.596,0-3.955,0c0-8.909,0-17.796,0-26.771
	c1.267,0,2.564,0,3.955,0C73.064,19.751,73.064,28.637,73.064,37.658z"/>
<path fill-rule="evenodd" clip-rule="evenodd" d="M100.383,37.634c-1.477,0-2.776,0-4.134,0c0-6.365,0-12.657,0-19.02
	c1.124-0.212,2.219-0.11,3.37-0.065c0.28,1.001,0.002,2.005,0.218,3.18c0.755-1.231,1.316-2.428,2.499-3.098
	c1.173-0.666,2.363-0.902,3.704-0.255c-0.411,1.131-0.814,2.244-1.214,3.343c-2.414-0.297-3.6,0.549-4.083,2.917
	c-0.434,2.125-0.358,4.285-0.36,6.438C100.381,33.225,100.383,35.375,100.383,37.634z"/>
<path fill-rule="evenodd" clip-rule="evenodd" d="M167.444,16.637c-3.336-2.074-5.801-1.975-8.796,0.215
	c-1.816,1.329-3.927,1.215-5.996,1.111c-2.572-0.129-3.411,0.862-2.758,3.393c0.283,1.097,0.886,2.04,1.352,3.051
	c1.344,2.92,0.585,5.271-2.176,6.739c-0.264-0.347-0.05-0.671,0.056-0.989c0.614-1.842,0.422-3.6-0.488-5.307
	c-0.637-1.195-1.216-2.417-1.671-3.698c-1.07-3.017-0.101-4.835,3.027-5.619c1.091-0.273,2.209-0.43,3.321-0.253
	c1.646,0.261,3.124-0.107,4.382-1.139C160.943,11.476,165.737,13.15,167.444,16.637z"/>
<path fill-rule="evenodd" clip-rule="evenodd" d="M159.445,0.102c2.053,0.824,2.75,2.644,3.836,4.384
	c-0.67-0.173-0.889-0.587-1.144-0.941c-0.585-0.811-1.208-1.559-2.145-2.01C159.48,1.288,159.049,0.903,159.445,0.102z"/>
</svg>
